<?xml version="1.0" encoding="UTF-8" standalone="no"?>
<!-- Created with Inkscape (http://www.inkscape.org/) -->

<svg
   width="511.99994"
   height="511.99994"
   viewBox="0 0 135.46664 135.46664"
   version="1.1"
   id="svg5"
   xml:space="preserve"
   sodipodi:docname="Logo.svg"
   inkscape:export-filename="Logo.svg"
   inkscape:export-xdpi="96"
   inkscape:export-ydpi="96"
   inkscape:version="1.3.2 (091e20e, 2023-11-25, custom)"
   xmlns:inkscape="http://www.inkscape.org/namespaces/inkscape"
   xmlns:sodipodi="http://sodipodi.sourceforge.net/DTD/sodipodi-0.dtd"
   xmlns:xlink="http://www.w3.org/1999/xlink"
   xmlns="http://www.w3.org/2000/svg"
   xmlns:svg="http://www.w3.org/2000/svg"><sodipodi:namedview
     id="namedview1"
     pagecolor="#505050"
     bordercolor="#eeeeee"
     borderopacity="1"
     inkscape:showpageshadow="0"
     inkscape:pageopacity="0"
     inkscape:pagecheckerboard="0"
     inkscape:deskcolor="#505050"
     showgrid="false"
     inkscape:zoom="2.3769534"
     inkscape:cx="236.01641"
     inkscape:cy="285.02873"
     inkscape:window-width="2560"
     inkscape:window-height="1494"
     inkscape:window-x="-11"
     inkscape:window-y="-11"
     inkscape:window-maximized="1"
     inkscape:current-layer="layer4" /><defs
     id="defs2"><color-profile
       name="Agfa-:-Swop-Standard"
       xlink:href="../../../OneDrive%20-%20EFIF/HTX/Infomatik/WINDOWS/system32/spool/drivers/color/RSWOP.icm"
       id="color-profile1" /><style
       type="text/css"
       id="style262">
   
    .fil0 {fill:black;fill-rule:nonzero}
   
  </style><filter
       style="color-interpolation-filters:sRGB"
       id="filter898"
       x="-0.0029994841"
       y="-0.0046322677"
       width="1.0102409"
       height="1.0137768"><feColorMatrix
         values="1 0 0 0 0 0 1 0 0 0 0 0 1 0 0 -0.21 -0.72 -0.07 2 0 "
         result="fbSourceGraphic"
         id="feColorMatrix896" /><feColorMatrix
         result="fbSourceGraphicAlpha"
         in="fbSourceGraphic"
         values="0 0 0 -1 0 0 0 0 -1 0 0 0 0 -1 0 0 0 0 1 0"
         id="feColorMatrix942" /><feColorMatrix
         id="feColorMatrix944"
         type="hueRotate"
         values="180"
         result="color1"
         in="fbSourceGraphic" /><feColorMatrix
         id="feColorMatrix946"
         values="-1 0 0 0 1 0 -1 0 0 1 0 0 -1 0 1 -0.21 -0.72 -0.07 2 0 "
         result="fbSourceGraphic" /><feColorMatrix
         result="fbSourceGraphicAlpha"
         in="fbSourceGraphic"
         values="0 0 0 -1 0 0 0 0 -1 0 0 0 0 -1 0 0 0 0 1 0"
         id="feColorMatrix948" /><feColorMatrix
         id="feColorMatrix950"
         type="hueRotate"
         values="180"
         result="color1"
         in="fbSourceGraphic" /><feColorMatrix
         id="feColorMatrix952"
         values="-1 0 0 0 1 0 -1 0 0 1 0 0 -1 0 1 -0.21 -0.72 -0.07 2 0 "
         result="fbSourceGraphic" /><feColorMatrix
         result="fbSourceGraphicAlpha"
         in="fbSourceGraphic"
         values="0 0 0 -1 0 0 0 0 -1 0 0 0 0 -1 0 0 0 0 1 0"
         id="feColorMatrix954" /><feColorMatrix
         id="feColorMatrix956"
         type="hueRotate"
         values="180"
         result="color1"
         in="fbSourceGraphic" /><feColorMatrix
         id="feColorMatrix958"
         values="-1 0 0 0 1 0 -1 0 0 1 0 0 -1 0 1 -0.21 -0.72 -0.07 2 0 "
         result="color2" /></filter><filter
       style="color-interpolation-filters:sRGB"
       id="filter964"
       x="0"
       y="0"
       width="1"
       height="1"><feColorMatrix
         type="hueRotate"
         values="180"
         result="color1"
         id="feColorMatrix960" /><feColorMatrix
         values="-1 0 0 0 1 0 -1 0 0 1 0 0 -1 0 1 -0.21 -0.72 -0.07 2 0 "
         result="color2"
         id="feColorMatrix962" /></filter><filter
       style="color-interpolation-filters:sRGB"
       id="filter1022"
       x="0"
       y="0"
       width="1"
       height="1"><feColorMatrix
         type="hueRotate"
         values="180"
         result="color1"
         id="feColorMatrix1018" /><feColorMatrix
         values="-1 0 0 0 1 0 -1 0 0 1 0 0 -1 0 1 -0.21 -0.72 -0.07 2 0 "
         result="fbSourceGraphic"
         id="feColorMatrix1020" /><feColorMatrix
         result="fbSourceGraphicAlpha"
         in="fbSourceGraphic"
         values="0 0 0 -1 0 0 0 0 -1 0 0 0 0 -1 0 0 0 0 1 0"
         id="feColorMatrix1156" /><feColorMatrix
         id="feColorMatrix1158"
         values="0 0 0 1 0 0 0 0 1 0 0 0 0 1 0 0 0 0 1 0 "
         in="fbSourceGraphic" /></filter></defs><g
     inkscape:groupmode="layer"
     id="layer4"
     inkscape:label="Layer 1"><g
       transform="matrix(0.01349904,0,0,-0.01349892,14.234936,75.205341)"
       fill="#000000"
       stroke="none"
       id="g25"
       style="filter:url(#filter964);image-rendering:optimizeQuality;stroke:#ffffff;stroke-opacity:1;stroke-width:39.20048964;stroke-dasharray:none"><path
         d="m 3754,5529 c -337,-39 -708,-197 -975,-415 -104,-85 -268,-260 -335,-359 -271,-398 -348,-878 -224,-1401 26,-112 57,-210 108,-344 34,-88 62,-209 62,-262 0,-8 -27,-33 -60,-56 -33,-24 -62,-53 -65,-65 -7,-27 27,-124 63,-182 87,-140 209,-227 474,-341 186,-80 266,-121 283,-148 11,-17 45,-245 45,-297 0,-8 4,-8 15,1 24,20 37,2 31,-44 l -5,-41 10,35 c 13,45 35,63 60,49 11,-5 19,-20 20,-32 1,-21 1,-20 8,3 14,50 70,32 72,-24 l 1,-31 7,35 c 4,20 11,41 15,48 13,22 47,13 82,-22 l 33,-33 13,40 c 7,22 19,42 26,45 21,7 72,-57 79,-102 l 7,-41 7,54 c 11,83 57,131 95,100 21,-18 54,-83 55,-111 0,-13 9,4 20,38 18,60 59,114 84,114 36,0 84,-94 86,-170 1,-29 3,-25 18,30 30,116 74,165 118,128 22,-18 53,-87 53,-121 0,-37 16,-26 24,15 3,18 17,46 29,62 19,24 28,28 51,22 31,-8 56,-55 57,-108 v -33 l 18,40 c 10,22 30,51 44,64 33,30 52,18 66,-42 5,-23 9,-35 10,-25 1,23 58,68 87,68 17,0 25,-7 30,-25 6,-26 7,-26 21,-5 19,27 51,26 63,-2 l 9,-23 6,22 c 9,29 28,35 54,17 16,-12 21,-26 21,-59 0,-68 -15,-97 -48,-93 -22,2 -28,9 -33,38 l -6,35 -2,-33 c -1,-43 -17,-72 -39,-72 -26,0 -42,20 -43,55 l -1,30 -8,-32 c -4,-18 -14,-41 -21,-50 -12,-16 -12,-16 8,0 23,20 29,15 43,-31 6,-21 8,-22 9,-7 1,22 37,43 94,55 l 38,7 -3,-46 c -2,-36 -7,-47 -22,-49 -10,-2 -22,2 -27,10 -6,9 -9,3 -9,-19 0,-22 -6,-36 -19,-43 -25,-13 -27,-13 -45,6 -13,12 -16,13 -16,1 0,-16 -41,-57 -58,-57 -6,0 -18,10 -26,22 -13,18 -16,19 -16,6 0,-9 -11,-29 -23,-44 -31,-36 -52,-27 -78,33 l -21,48 -11,-34 c -7,-19 -24,-43 -39,-54 -23,-17 -30,-18 -43,-7 -31,25 -47,71 -43,121 3,44 1,49 -17,49 -16,0 -17,-2 -6,-9 19,-12 9,-111 -16,-153 -27,-46 -49,-57 -70,-35 -14,13 -19,38 -22,102 -3,79 -1,86 20,104 21,17 26,18 40,5 8,-8 20,-14 25,-14 5,0 1,5 -8,11 -13,7 -18,24 -19,57 l -1,47 -8,-39 c -8,-45 -40,-75 -79,-77 -25,-2 -25,-2 -2,-6 23,-5 23,-7 17,-66 -7,-69 -33,-131 -57,-135 -21,-4 -50,56 -57,115 -6,59 -18,54 -25,-9 -11,-110 -53,-143 -81,-65 -8,23 -17,56 -19,72 -2,18 -5,9 -6,-21 -1,-58 -27,-101 -54,-91 -23,9 -47,49 -62,104 -12,43 -13,45 -14,16 -1,-31 -43,-93 -63,-93 -19,0 -68,62 -69,89 -1,22 -5,17 -25,-27 -30,-65 -49,-75 -81,-38 -12,15 -23,34 -23,43 0,11 -5,9 -19,-8 l -19,-24 -29,21 c -24,18 -28,29 -31,77 -2,31 2,66 8,78 12,21 12,21 41,-7 22,-21 29,-38 30,-68 l 2,-41 6,43 c 6,36 31,71 52,72 3,0 11,-11 17,-25 17,-37 56,-42 96,-12 33,25 34,26 69,9 20,-9 37,-24 39,-32 3,-10 6,-7 10,8 5,18 2,22 -16,22 -32,0 -64,27 -76,63 -10,32 -10,32 -6,3 5,-40 -1,-54 -36,-72 -51,-26 -76,-3 -91,86 -4,21 -4,20 -6,-6 -1,-22 -9,-37 -27,-49 -25,-16 -28,-16 -53,3 -14,10 -31,37 -38,58 l -11,39 -1,-37 c -1,-20 -7,-43 -13,-50 -8,-7 -13,-39 -13,-73 0,-47 -3,-60 -16,-63 -29,-5 -52,28 -46,67 5,32 4,33 -6,13 -7,-15 -18,-22 -31,-20 -17,2 -22,11 -24,46 -3,36 0,42 17,42 10,0 26,3 35,6 10,4 16,1 16,-9 0,-8 7,-18 16,-21 24,-9 31,-7 13,4 -9,5 -20,27 -24,47 -7,35 -8,36 -14,13 -5,-16 -15,-26 -30,-28 -27,-4 -40,12 -42,48 0,23 -1,23 -9,5 -4,-11 -4,-24 1,-30 5,-5 9,-22 9,-38 0,-37 -22,-31 -34,9 -4,16 -12,37 -17,46 -5,10 -9,25 -9,33 0,9 -5,13 -10,10 -22,-14 -109,207 -139,353 l -17,84 -153,65 c -84,36 -154,63 -156,61 -2,-2 2,-26 11,-53 18,-62 38,-219 64,-505 34,-369 59,-497 125,-615 46,-82 80,-111 230,-198 72,-41 173,-100 225,-132 387,-230 662,-278 990,-169 58,19 150,59 205,88 152,81 434,262 487,313 30,30 66,83 102,153 53,101 57,115 75,241 11,74 25,202 31,284 14,194 50,558 57,567 6,11 -21,10 -53,-2 -15,-6 -29,-9 -31,-6 -2,2 20,12 49,21 104,34 210,97 279,165 73,73 110,141 134,244 18,78 10,103 -51,150 l -37,29 7,91 c 5,75 14,111 51,204 268,681 195,1344 -205,1840 -248,309 -617,538 -1015,630 -200,47 -446,63 -631,41 z M 5314,4176 c -12,-237 -11,-401 5,-466 7,-30 33,-98 58,-150 67,-143 92,-242 104,-405 5,-77 16,-185 25,-240 8,-55 17,-113 19,-130 3,-16 -11,17 -30,75 -27,80 -38,133 -45,222 -16,196 -52,331 -125,478 -56,112 -68,184 -61,350 3,80 13,192 21,250 8,58 15,132 15,165 0,49 3,57 12,41 8,-14 8,-68 2,-190 z M 2641,3891 c 6,-33 10,-102 7,-154 -4,-90 -6,-97 -66,-223 -74,-156 -85,-211 -70,-355 8,-74 8,-115 0,-150 -12,-51 -93,-251 -100,-245 -2,3 13,59 33,126 40,131 39,105 19,345 -8,102 11,178 76,302 82,156 86,229 30,508 -45,229 -38,264 15,68 24,-88 49,-188 56,-222 z m 741,-442 c 121,-26 221,-100 265,-196 63,-136 26,-363 -67,-413 -10,-5 -63,-18 -118,-29 -136,-27 -230,-61 -326,-120 -98,-60 -156,-75 -251,-65 -132,13 -194,48 -234,133 -21,46 -25,70 -25,136 1,107 35,230 85,304 117,176 445,298 671,250 z m 1433,-14 c 84,-23 210,-84 275,-133 103,-79 148,-159 176,-317 20,-107 11,-179 -29,-246 -39,-65 -94,-96 -195,-111 -104,-15 -175,0 -266,57 -90,56 -203,98 -337,125 -56,12 -110,25 -120,31 -52,28 -99,141 -99,241 0,189 99,316 285,365 64,16 228,10 310,-12 z m -793,-547 c 152,-190 253,-438 264,-648 5,-86 3,-99 -18,-140 -42,-81 -134,-86 -254,-14 l -59,35 -35,-21 c -136,-82 -245,-79 -286,8 -54,115 43,446 203,697 56,87 112,157 124,153 4,-2 32,-33 61,-70 z m 1135,-784 c -3,-3 -12,-4 -19,-1 -8,3 -5,6 6,6 11,1 17,-2 13,-5 z m -211,-235 c -19,-89 -103,-267 -147,-310 -17,-16 -28,-33 -25,-36 7,-8 -22,-63 -34,-63 -11,0 -14,53 -4,63 4,3 7,37 8,74 1,55 4,68 18,71 10,2 23,-8 32,-25 l 15,-28 -5,35 c -7,44 32,293 51,330 8,15 34,37 57,49 l 43,21 3,-53 c 2,-30 -4,-87 -12,-128 z"
         id="path9"
         style="stroke:#ffffff;stroke-opacity:1;stroke-width:39.20048964;stroke-dasharray:none" /><path
         d="m 3121,1624 c 0,-11 3,-14 6,-6 3,7 2,16 -1,19 -3,4 -6,-2 -5,-13 z"
         id="path11"
         style="stroke:#ffffff;stroke-opacity:1;stroke-width:39.20048964;stroke-dasharray:none" /><path
         d="m 3771,1498 c -1,-15 -10,-33 -23,-42 -12,-9 -18,-16 -14,-16 5,0 18,7 28,17 17,15 19,15 38,-2 11,-10 21,-28 21,-39 1,-17 2,-18 6,-3 2,9 14,17 26,18 17,1 15,3 -9,10 -34,10 -59,34 -67,64 -4,15 -5,14 -6,-7 z"
         id="path13"
         style="stroke:#ffffff;stroke-opacity:1;stroke-width:39.20048964;stroke-dasharray:none" /><path
         d="m 3947,1492 c -5,-24 -15,-36 -39,-47 -18,-8 -26,-14 -18,-14 8,-1 22,3 30,9 9,6 17,5 22,-3 5,-8 8,-4 8,11 0,27 4,28 30,2 11,-11 28,-20 38,-19 11,0 8,4 -9,10 -17,6 -32,23 -41,47 l -14,37 z"
         id="path15"
         style="stroke:#ffffff;stroke-opacity:1;stroke-width:39.20048964;stroke-dasharray:none" /><path
         d="m 4421,1499 c -1,-21 6,-29 29,-39 30,-12 36,-25 43,-85 2,-18 5,-8 7,27 3,31 2,54 -2,52 -15,-9 -67,26 -71,48 -4,21 -4,20 -6,-3 z"
         id="path17"
         style="stroke:#ffffff;stroke-opacity:1;stroke-width:39.20048964;stroke-dasharray:none" /><path
         d="m 4282,1475 c -9,-20 -9,-23 3,-18 8,3 15,14 15,24 0,25 -5,24 -18,-6 z"
         id="path19"
         style="stroke:#ffffff;stroke-opacity:1;stroke-width:39.20048964;stroke-dasharray:none" /><path
         d="m 4401,1437 c -13,-21 -12,-21 5,-5 10,10 16,20 13,22 -3,3 -11,-5 -18,-17 z"
         id="path21"
         style="stroke:#ffffff;stroke-opacity:1;stroke-width:39.20048964;stroke-dasharray:none" /><path
         d="m 4315,1436 c 11,-8 25,-20 32,-26 8,-6 14,-6 18,0 3,6 -6,15 -21,20 -15,6 -32,13 -38,16 -6,3 -2,-1 9,-10 z"
         id="path23"
         style="stroke:#ffffff;stroke-opacity:1;stroke-width:39.20048964;stroke-dasharray:none" /></g><g
       id="g3"
       transform="matrix(0.26458331,0,0,0.26458331,-23.358235,8.6746666)"
       style="stroke-width:2.50000003;stroke-dasharray:none;stroke:#000000;stroke-opacity:1"><path
         fill="#292929"
         opacity="1"
         stroke="none"
         d="m 527.4807,273.35168 c -0.43968,3.9012 -0.77457,7.818 -1.34657,11.69952 -0.66406,4.50652 -1.32233,9.03654 -2.43283,13.44197 -0.39496,1.56685 -1.82578,3.3965 -3.26656,4.08208 -7.17526,3.41422 -14.51329,6.48276 -21.79031,9.68142 -11.90243,5.23175 -23.79146,10.49425 -35.70713,15.69527 -5.86721,2.56096 -11.7737,5.03198 -17.68404,7.49121 -0.73705,0.30669 -1.60717,0.29068 -2.68313,0.1535 -0.43169,-3.17669 -0.59589,-6.08268 -0.67765,-9.21737 0.47334,-4.42717 0.74563,-8.64126 1.29103,-12.81938 0.47318,-3.62474 -0.70605,-6.46823 -3.33778,-8.83305 0,0 0.0556,-0.0209 -0.0256,-0.0949 -0.20183,-0.21056 -0.32596,-0.3438 -0.45367,-0.47368 -0.70555,-2.01471 -2.08446,-2.04295 -3.73695,-1.28385 -9.30948,4.27652 -18.59734,8.60136 -27.93482,12.8152 -14.70541,6.6363 -29.45167,13.18124 -44.16686,19.79579 -11.12327,4.99996 -22.22389,10.05079 -33.33661,15.07444 -15.55451,7.03165 -31.11264,14.05523 -46.66599,21.0894 -13.29058,6.01084 -26.57213,12.0418 -39.86585,18.04561 -15.26652,6.8948 -30.55127,13.74884 -45.81071,20.65937 -12.14922,5.50203 -24.25499,11.10105 -36.41253,16.58433 -9.42269,4.24982 -18.89555,8.38735 -28.55051,12.65955 -0.20443,-10.13331 -0.20443,-20.3514 -0.20442,-30.86227 2.77512,-1.39518 5.61705,-2.35478 8.31249,-3.62747 7.18334,-3.39173 14.27954,-6.96953 21.45894,-10.3699 3.71508,-1.75959 7.59041,-3.18003 11.29116,-4.96728 5.27471,-2.54735 10.38119,-5.453 15.69382,-7.91284 8.0207,-3.71374 16.19507,-7.09167 24.2308,-10.77385 5.03769,-2.30839 9.90591,-4.98745 14.91476,-7.36269 4.71089,-2.23394 9.55329,-4.18892 14.25505,-6.44106 9.39322,-4.49937 18.69299,-9.19639 28.10336,-13.65856 5.76934,-2.73566 11.72749,-5.06897 17.50139,-7.79551 7.3433,-3.46763 14.55432,-7.21727 21.88322,-10.71672 4.83328,-2.30781 9.80473,-4.322 14.65894,-6.58743 7.46562,-3.48415 14.88365,-7.07118 22.65441,-10.73811 0.49514,-0.24979 0.65391,-0.38071 0.80884,-0.51633 0,0 0.21529,-0.0371 0.46517,-0.13769 0.43551,-0.23892 0.62116,-0.37725 0.80679,-0.51558 0,0 0.22852,-0.036 0.56716,-0.0662 1.07339,-0.46607 1.80816,-0.90199 2.54292,-1.33792 0.26693,-0.16921 0.53387,-0.33843 1.08223,-0.52088 0.65019,-0.1853 1.01895,-0.35738 1.38772,-0.52945 0,0 0.24494,-0.0417 0.49408,-0.14365 0.41308,-0.23348 0.577,-0.365 0.74093,-0.49654 0,0 0.25507,-0.0316 0.50314,-0.13227 0.41377,-0.2257 0.57596,-0.35521 0.73459,-0.4892 0,0 0.22567,-0.0359 0.46908,-0.1353 0.41954,-0.22871 0.59565,-0.35809 0.77175,-0.48747 0,0 0.22133,-0.042 0.47443,-0.14264 0.43597,-0.23823 0.61887,-0.37575 0.80177,-0.51328 0,0 0.21214,-0.0269 0.46416,-0.12138 0.43521,-0.23825 0.61839,-0.38208 0.80159,-0.52592 0,0 0.19179,-0.0122 0.42611,-0.10332 0.42133,-0.22738 0.60836,-0.3637 0.79537,-0.50003 0,0 0.20458,-0.0384 0.49476,-0.0958 0.64644,-0.21088 1.00266,-0.36432 1.3589,-0.51777 5.07452,-2.30172 10.1742,-4.54936 15.21794,-6.91729 8.49038,-3.98607 16.94492,-8.04917 25.41594,-12.07692 0.38114,-0.18121 0.77604,-0.33323 1.1645,-0.49883 -0.0946,-0.28092 -0.18921,-0.56183 -0.2838,-0.84275 -5.23009,-2.04184 -10.4602,-4.08367 -15.86515,-6.56541 -0.36448,-7.58525 -0.55411,-14.7306 -0.74374,-21.87594 0.58072,-0.81667 0.98017,-2.00922 1.76944,-2.39336 11.02259,-5.36472 22.12538,-10.56306 33.1523,-15.91889 7.95609,-3.86429 15.80142,-7.95835 23.74867,-11.84147 4.63403,-2.26425 9.38679,-4.2821 14.05099,-6.48585 1.10093,-0.52017 2.0604,-1.34266 3.43556,-2.14968 0.54536,-0.25893 0.74009,-0.39425 0.93487,-0.52959 0,1e-5 0.21837,-0.0263 0.45649,-0.12116 0.41346,-0.22355 0.58883,-0.35218 0.76416,-0.4808 0,0 0.22078,-0.0391 0.47408,-0.17551 0.44389,-0.31652 0.63453,-0.49663 0.82516,-0.67673 0.25256,-0.14281 0.5051,-0.28562 1.07954,-0.50969 0.66334,-0.2243 1.00482,-0.36731 1.34626,-0.51033 0,0 0.26091,-0.0547 0.62736,-0.0624 0.52199,-0.01 0.67754,-0.0115 0.83306,-0.0134 0,0 0.2445,0.0121 0.50812,0.18809 1.04602,0.47117 1.82844,0.76634 2.61082,1.06152 0,0 0.24409,0.007 0.53193,0.11548 0.64106,0.24258 0.99427,0.37668 1.34752,0.51077 0,0 0.22032,-0.006 0.46443,0.12145 0.43932,0.25894 0.63446,0.39112 0.82961,0.5233 0,-1e-5 0.19997,-0.0149 0.41699,0.1078 0.38673,0.255 0.55645,0.38733 0.72613,0.51965 6.73796,2.52632 13.54663,4.88236 20.1793,7.66224 2.67466,1.12102 4.96438,3.16924 7.42723,4.79863 0.0844,0.0559 0.15256,0.14065 0.21807,0.22041 1.3489,1.64101 2.78661,4.71386 4.02557,4.63485 2.79337,-0.17814 5.53503,-1.81279 8.21265,-3.04185 4.49293,-2.06225 8.8457,-4.45897 13.43182,-6.26917 1.00334,-0.39603 3.3114,0.69391 4.03031,1.76745 2.16472,3.23234 3.84211,6.79405 5.83824,10.56648 0.25855,0.51173 0.38837,0.68432 0.51819,0.85689 0,0 0.0525,0.24522 0.0861,0.59196 0.44059,1.09583 0.84756,1.84492 1.25452,2.59402 0,-1e-5 -0.0586,-0.003 0.009,0.12864 0.2209,0.4445 0.37399,0.75712 0.52703,1.06973 0,1e-5 0.0423,0.25308 0.0595,0.6261 0.61346,1.71108 1.20973,3.04916 1.806,4.38724 0.0295,0.25766 0.0592,0.5153 0.0849,1.09472 0.17385,0.68156 0.35147,1.04135 0.52907,1.40113 0.30774,0.3873 0.61548,0.77459 1.10519,1.21752 0.18194,1.12676 0.18194,2.19789 0.18194,3.53673 -6.86221,3.5773 -13.72445,6.88689 -20.93125,10.32564 -0.5019,0.26699 -0.65913,0.40483 -0.81635,0.54267 -0.58675,0.87038 -1.17349,1.74075 -1.83288,3.02867 0.31997,2.78591 0.71257,5.15426 1.10519,7.52262 0.01,0.32712 0.0192,0.65425 0.0215,1.26976 -0.007,0.2884 -0.0605,0.56083 -0.0606,0.56083 z"
         id="path3"
         style="stroke-width:2.50000003;fill:#ffffff;stroke-dasharray:none;stroke:#000000;stroke-opacity:1" /></g></g><g
     inkscape:groupmode="layer"
     id="layer5"
     inkscape:label="Layer 2"><g
       style="display:inline;clip-rule:evenodd;fill-rule:evenodd;stroke:#ffffff;stroke-width:0.57440118;stroke-dasharray:none;stroke-opacity:1;image-rendering:optimizeQuality;shape-rendering:geometricPrecision;text-rendering:geometricPrecision"
       id="g283"
       transform="matrix(-1.1515611,0,0,1.1515619,137.99939,42.024519)"><g
         id="g268"
         style="stroke:#ffffff;stroke-width:0.57440118;stroke-dasharray:none;stroke-opacity:1"><path
           class="fil0"
           d="m 22,62 8,-6 -14,-3 -6,5 9,4 z M 6,80 19,73 c 0,0 0,-1 -1,-1 L 6,79 c -1,0 0,1 0,1 z M 3,74 15,67 c 1,0 0,-1 0,-1 L 3,73 c -1,0 -1,1 0,1 z m 2,3 12,-7 c 0,0 0,-1 -1,-1 L 4,76 c 0,0 0,1 1,1 z M 96,20 h -1 c 0,1 1,2 2,3 l 1,-1 c -1,0 -2,-1 -2,-2 z m 1,3 c -1,0 -2,-2 -2,-3 v 0 c -1,1 1,3 2,4 z m 0,2 c -2,-1 -4,-4 -3,-6 0,0 -1,0 -1,0 0,3 1,5 4,6 z m 1,-3 c 0,-1 0,-2 -1,-2 -1,1 0,1 1,2 z m -63,30 -2,-3 -7,5 v 1 l 4,1 c 1,-2 3,-3 5,-4 z m -5,4 h 1 l -1,1 -1,2 -7,5 c 0,0 -1,0 -1,-1 0,0 0,0 0,0 v 0 c -2,3 0,6 3,9 l 1,-2 h -1 c 0,0 0,-1 0,-1 3,-2 5,-3 8,-5 l 1,1 3,-1 -3,4 C 51,58 69,47 86,37 80,34 78,30 78,24 62,35 46,45 30,56 Z M 92,19 c -5,0 -8,2 -13,5 -1,6 2,10 7,12 6,-3 8,-6 10,-10 -2,-1 -4,-4 -4,-7 z m -63,39 -7,4 v 1 z m 4,11 -1,2 5,5 7,-3 -3,-9 z m -8,1 8,-4 -1,-1 c -1,0 -3,2 -7,4 0,0 0,0 0,0 z m 1,1 -2,1 -3,9 6,-3 7,-13 z"
           id="path266"
           style="stroke:#ffffff;stroke-width:0.57440118;stroke-dasharray:none;stroke-opacity:1;filter:url(#filter898)" /></g></g></g></svg>
